<?xml version="1.0" encoding="UTF-8" standalone="no"?>
<!-- Created with Inkscape (http://www.inkscape.org/) -->

<svg
   version="1.1"
   id="svg1"
   width="155.67567"
   height="155.67567"
   viewBox="0 0 155.67567 155.67567"
   xmlns="http://www.w3.org/2000/svg"
   xmlns:svg="http://www.w3.org/2000/svg">
  <defs
     id="defs1" />
  <g
     id="g1">
    <g
       id="g34"
       transform="translate(0.27726246)">
      <g
         id="g33">
        <path
           id="path29-8"
           style="fill:#e6e6e6;stroke-width:1.28187"
           d="M 27.345993,0.45475909 A 26.478572,26.478572 0 0 0 0.86656796,26.934183 26.478572,26.478572 0 0 0 27.345993,53.411292 26.478572,26.478572 0 0 0 53.823101,26.934183 26.478572,26.478572 0 0 0 27.345993,0.45475909 Z m 0,17.76262391 a 8.7165489,8.7165489 0 0 1 8.716801,8.7168 8.7165489,8.7165489 0 0 1 -8.716801,8.716801 8.7165489,8.7165489 0 0 1 -8.716801,-8.716801 8.7165489,8.7165489 0 0 1 8.716801,-8.7168 z" />
        <path
           id="path29-8-2"
           style="fill:#e6e6e6;stroke-width:1.28187"
           d="M 115.50839,0.52320816 A 26.478572,26.478572 0 0 0 89.028968,27.002632 26.478572,26.478572 0 0 0 115.50839,53.479741 26.478572,26.478572 0 0 0 141.9855,27.002632 26.478572,26.478572 0 0 0 115.50839,0.52320816 Z m 0,17.76262384 a 8.7165489,8.7165489 0 0 1 8.7168,8.7168 8.7165489,8.7165489 0 0 1 -8.7168,8.716801 8.7165489,8.7165489 0 0 1 -8.7168,-8.716801 8.7165489,8.7165489 0 0 1 8.7168,-8.7168 z" />
        <path
           id="path29-8-2-1"
           style="fill:#e6e6e6;stroke-width:1.28187"
           d="M 27.56532,102.00112 A 26.478572,26.478572 0 0 0 1.0859004,128.48054 26.478572,26.478572 0 0 0 27.56532,154.95765 26.478572,26.478572 0 0 0 54.04243,128.48054 26.478572,26.478572 0 0 0 27.56532,102.00112 Z m 0,17.76262 a 8.7165489,8.7165489 0 0 1 8.7168,8.7168 8.7165489,8.7165489 0 0 1 -8.7168,8.7168 8.7165489,8.7165489 0 0 1 -8.7168,-8.7168 8.7165489,8.7165489 0 0 1 8.7168,-8.7168 z" />
        <path
           id="path29-8-2-1-0"
           style="fill:#e6e6e6;stroke-width:1.28187"
           d="m 127.81696,102.18678 a 26.478572,26.478572 0 0 0 -26.47942,26.47942 26.478572,26.478572 0 0 0 26.47942,26.47711 26.478572,26.478572 0 0 0 26.47711,-26.47711 26.478572,26.478572 0 0 0 -26.47711,-26.47942 z m 0,17.76262 a 8.7165489,8.7165489 0 0 1 8.7168,8.7168 8.7165489,8.7165489 0 0 1 -8.7168,8.7168 8.7165489,8.7165489 0 0 1 -8.7168,-8.7168 8.7165489,8.7165489 0 0 1 8.7168,-8.7168 z" />
        <rect
           style="fill:#e6e6e6;stroke-width:1.16979"
           id="rect31-4"
           width="28.835251"
           height="72.088127"
           x="13.250725"
           y="41.971092" />
        <rect
           style="fill:#e6e6e6;stroke-width:1.16979"
           id="rect31-4-6"
           width="28.835251"
           height="72.088127"
           x="-5.0210485"
           y="91.428314"
           transform="rotate(-41.469516)" />
        <rect
           style="fill:#e6e6e6;stroke-width:1.38411"
           id="rect31-4-5"
           width="28.835251"
           height="100.92338"
           x="81.871536"
           y="-60.516434"
           transform="rotate(48.990915)" />
      </g>
      <g
         id="g32"
         style="fill:#000000">
        <path
           id="path29"
           style="fill:#000000;stroke-width:1.08053"
           d="M 27.680927,4.7864267 A 22.319593,22.319593 0 0 0 5.3606136,27.106739 22.319593,22.319593 0 0 0 27.680927,49.425099 22.319593,22.319593 0 0 0 49.999286,27.106739 22.319593,22.319593 0 0 0 27.680927,4.7864267 Z m 0,14.9726563 a 7.3474441,7.3474441 0 0 1 7.347656,7.347656 7.3474441,7.3474441 0 0 1 -7.347656,7.347656 7.3474441,7.3474441 0 0 1 -7.347657,-7.347656 7.3474441,7.3474441 0 0 1 7.347657,-7.347656 z" />
        <path
           id="path29-5"
           style="fill:#000000;stroke-width:1.08053"
           d="M 115.42119,4.7864263 A 22.319593,22.319593 0 0 0 93.10088,27.10674 22.319593,22.319593 0 0 0 115.42119,49.4251 22.319593,22.319593 0 0 0 137.73955,27.10674 22.319593,22.319593 0 0 0 115.42119,4.7864263 Z m 0,14.9726577 a 7.3474441,7.3474441 0 0 1 7.34766,7.347656 7.3474441,7.3474441 0 0 1 -7.34766,7.347656 7.3474441,7.3474441 0 0 1 -7.34765,-7.347656 7.3474441,7.3474441 0 0 1 7.34765,-7.347656 z" />
        <path
           id="path29-7"
           style="fill:#000000;stroke-width:1.08053"
           d="m 127.69734,106.38743 a 22.319593,22.319593 0 0 0 -22.32031,22.32031 22.319593,22.319593 0 0 0 22.32031,22.31836 22.319593,22.319593 0 0 0 22.31836,-22.31836 22.319593,22.319593 0 0 0 -22.31836,-22.32031 z m 0,14.97265 a 7.3474441,7.3474441 0 0 1 7.34766,7.34766 7.3474441,7.3474441 0 0 1 -7.34766,7.34765 7.3474441,7.3474441 0 0 1 -7.34765,-7.34765 7.3474441,7.3474441 0 0 1 7.34765,-7.34766 z" />
        <path
           id="path29-1"
           style="fill:#000000;stroke-width:1.08053"
           d="m 27.680925,106.24595 a 22.319593,22.319593 0 0 0 -22.3203104,22.32031 22.319593,22.319593 0 0 0 22.3203104,22.31836 22.319593,22.319593 0 0 0 22.31836,-22.31836 22.319593,22.319593 0 0 0 -22.31836,-22.32031 z m 0,14.97265 a 7.3474441,7.3474441 0 0 1 7.34766,7.34766 7.3474441,7.3474441 0 0 1 -7.34766,7.34765 7.3474441,7.3474441 0 0 1 -7.34765,-7.34765 7.3474441,7.3474441 0 0 1 7.34765,-7.34766 z" />
        <rect
           style="fill:#000000"
           id="rect31"
           width="21.071915"
           height="72.088127"
           x="16.912985"
           y="42.143829" />
        <rect
           style="fill:#000000"
           id="rect31-5"
           width="21.071915"
           height="72.088127"
           x="-1.4327502"
           y="93.95459"
           transform="rotate(-41.613286)" />
        <rect
           style="fill:#000000;stroke-width:1.21212"
           id="rect31-7"
           width="21.071915"
           height="105.91409"
           x="85.776344"
           y="-55.219173"
           transform="rotate(49.164524)" />
      </g>
    </g>
  </g>
</svg>
