<?xml version="1.0" standalone="no"?>
<!DOCTYPE svg PUBLIC "-//W3C//DTD SVG 20010904//EN"
 "http://www.w3.org/TR/2001/REC-SVG-20010904/DTD/svg10.dtd">
<svg version="1.0" xmlns="http://www.w3.org/2000/svg"
 width="700.000000pt" height="700.000000pt" viewBox="0 0 700.000000 700.000000"
 preserveAspectRatio="xMidYMid meet">
<metadata>
Created by potrace 1.11, written by Peter Selinger 2001-2013
</metadata>
<g transform="translate(0.000000,700.000000) scale(0.100000,-0.100000)"
fill="#000000" stroke="none">
<path d="M1050 6984 c-267 -46 -477 -153 -665 -339 -335 -331 -448 -820 -293
-1270 30 -86 113 -243 169 -317 63 -85 174 -195 258 -258 l69 -51 0 -1248 0
-1249 -62 -45 c-77 -58 -181 -157 -232 -222 -21 -27 -42 -52 -45 -55 -10 -9
-76 -124 -107 -186 -93 -185 -135 -438 -111 -659 45 -409 293 -765 665 -954
238 -121 529 -159 798 -106 71 14 228 71 301 109 271 141 497 396 594 673 12
34 24 70 25 80 2 10 9 36 14 58 21 78 27 142 27 285 0 166 -25 308 -74 425
-73 173 -150 292 -270 416 l-87 91 120 105 c67 58 132 115 146 127 39 33 174
150 180 156 3 3 54 48 115 100 115 100 144 125 185 161 14 12 70 60 125 108
55 47 102 88 105 91 3 3 29 26 58 52 42 37 56 45 65 35 7 -6 84 -93 172 -192
88 -99 162 -182 165 -185 3 -3 39 -43 80 -90 41 -47 77 -87 80 -90 3 -3 64
-70 134 -150 71 -80 159 -179 197 -220 37 -41 77 -86 88 -99 11 -12 49 -55 84
-95 35 -39 79 -89 98 -110 19 -22 43 -49 54 -61 11 -11 46 -49 77 -85 31 -36
73 -83 93 -105 101 -110 105 -117 94 -160 -20 -85 -27 -264 -15 -371 12 -106
49 -250 82 -324 101 -222 178 -326 363 -488 24 -21 111 -82 156 -109 21 -13
26 -15 119 -58 70 -32 188 -70 248 -80 23 -4 52 -10 63 -12 45 -11 304 -10
370 2 110 20 115 22 200 50 123 42 252 111 365 197 83 63 235 231 270 298 7
14 16 27 20 30 13 10 90 180 114 252 114 349 61 743 -139 1042 -55 84 -80 114
-160 200 -144 154 -407 293 -622 331 -143 24 -350 28 -440 7 -48 -11 -39 -18
-193 157 -36 41 -87 99 -115 129 -27 30 -58 64 -68 76 -10 11 -30 35 -45 51
-15 17 -63 70 -107 120 -44 49 -84 95 -90 101 -110 123 -379 424 -479 538 -34
38 -66 74 -71 80 -6 6 -68 75 -137 152 l-127 142 56 48 c31 27 75 65 97 85 23
20 100 87 171 149 72 62 159 138 194 169 85 75 77 68 153 134 l67 58 98 -21
c185 -40 418 -32 596 21 323 96 601 327 749 624 60 119 106 269 123 395 6 45
6 258 1 290 -3 14 -10 54 -16 90 -32 178 -118 366 -242 530 -41 54 -157 165
-228 219 -127 95 -317 183 -458 211 -26 5 -58 12 -72 15 -41 11 -302 14 -350
5 -25 -5 -61 -11 -80 -14 -63 -10 -79 -15 -158 -42 -445 -153 -765 -548 -819
-1009 -8 -73 -9 -239 0 -280 3 -17 3 -35 -1 -41 -4 -6 -113 -102 -242 -214
-129 -113 -248 -216 -265 -231 -43 -38 -286 -249 -314 -274 -45 -38 -265 -230
-281 -245 -9 -8 -30 -26 -47 -40 -17 -14 -59 -50 -93 -80 -356 -310 -485 -423
-535 -465 -32 -27 -63 -54 -69 -60 -6 -5 -45 -39 -86 -75 -41 -36 -91 -79
-110 -97 -19 -18 -37 -28 -40 -23 -3 4 -5 220 -4 479 l1 471 69 52 c248 185
411 445 473 755 23 115 21 433 -4 473 -2 4 -7 22 -10 41 -18 104 -117 322
-187 414 -88 116 -177 205 -286 287 -93 70 -312 172 -413 192 -13 3 -49 10
-79 16 -80 17 -321 20 -410 4z"/>
</g>
</svg>
